<?xml version="1.0" encoding="UTF-8"?>
<svg width="32" height="32" viewBox="0 0 32 32" fill="none" xmlns="http://www.w3.org/2000/svg">
  <!-- Shield Outline -->
  <path 
    d="M16 1C10 3 5 4 1 4V17C1 25 8 31 16 36C24 31 31 25 31 17V4C27 4 22 3 16 1Z" 
    fill="#B91C1C"
  />
  
  <!-- Inner Shield -->
  <path 
    d="M16 4C11 5 7 6 4 6V17C4 24 9 28 16 32C23 28 28 24 28 17V6C25 6 21 5 16 4Z" 
    fill="#FFFFFF"
  />
  
  <!-- Star (Military Service) -->
  <path 
    d="M16 8L17.5 13.5H22.5L18.5 16.5L20 22L16 18.5L12 22L13.5 16.5L9.5 13.5H14.5L16 8Z" 
    fill="#1E3A8A"
  />

  <!-- Circuit Lines (Tech Innovation) -->
  <path 
    d="M9 24H23M9 27H23M13 24V30M19 24V30M9 30H23" 
    stroke="#1E3A8A" 
    stroke-width="1.5"
    stroke-linecap="round" 
  />
</svg> 